<svg xmlns="http://www.w3.org/2000/svg" width="600" height="199.49" viewBox="0 0 600 199.49"><g fill="#C0C0C0"><path d="M183.304 75.5c-12.95 0-20 5.4-27.02 10.47v-49.3h-22.298v95.47l22.383 22.38v-53.684c6.592-5.034 11.51-7.36 20.516-7.36 5.673 0 9.375 3.044 9.375 11.484v56.862h22.383v-56.51c0-16.177-5.583-29.81-25.34-29.81zM215.422 132.192c0-12.35 6.676-23.28 24.873-23.28 0 0 24.93.157 24.93 0 0 0 .164-5.28 0-5.44 0-9.048-4.23-10.47-11.348-10.47-7.378 0-28.668 1.325-35.648 1.828V81.017c11.178-4.342 22.85-5.606 38.68-5.68 18.28-.074 30.7 6.242 30.7 27.256v59.23h-17.67l-4.715-9.35c-.93 1.84-12.843 10.572-25.81 10.308-16.335-.436-23.992-11.56-23.992-22.598v-7.99zm30.32 12.603c9.362 0 19.482-6.568 19.482-6.568V122.67l-20.532 1.582c-5.91.553-6.884 4.923-6.884 8.635v4.125c0 7.058 3.817 7.783 7.934 7.783zM311.942 76.937l17.008 58.667 15.207-58.667h22.28l-5.907 22.867 14.062 35.8 16.746-58.667h24.03l-27.434 84.886H362.91l-12.704-30.752-9.602 30.753H315.15L288 76.937h23.942zM420.062 81.412l13.71-4.634 3.757-23.662h18.624v23.662h18.977v17.104h-18.976v34.05c0 12.502 2.882 15.172 7.267 16.8 0 0 9.593 3.357 10.704 3.357v13.748H454.61c-12.566 0-20.84-7.85-20.84-30.39V93.883h-13.708v-12.47zM484.623 50.162c0-2.398 1.277-4 3.84-4h16.785c2.395 0 3.584 1.765 3.584 4v14.17c0 2.395-1.35 3.68-3.584 3.68h-16.786c-2.24 0-3.84-1.437-3.84-3.68v-14.17zm.808 26.775h22.377v84.886H485.43V76.937zM559.637 76.142c29.233 0 38.73 10.708 38.73 44.435 0 31.496-9.056 42.044-38.73 42.044-29.313 0-38.726-11.67-38.726-42.043 0-34.684 10.038-44.435 38.727-44.435zm0 68.497c12.61 0 16.35-1.712 16.35-24.063 0-23.772-3.01-26.453-16.35-26.453-13.243 0-16.342 2.693-16.342 26.453 0 21.967 4.45 24.062 16.342 24.062z"/></g><path fill="#C0C0C0" d="M20.575 132.514c11.736 11.74 27.35 18.214 43.953 18.214 11.41 0 22.625-3.187 32.44-9.21l2.078-1.27 21.92 21.928h34.338l-39.1-39.1 1.275-2.067C132.57 96.415 128.87 65 108.48 44.615 96.742 32.876 81.13 26.41 64.528 26.41c-16.604 0-32.206 6.467-43.947 18.206C8.84 56.358 2.366 71.97 2.366 88.57c0 16.597 6.467 32.205 18.21 43.944zm17.17-70.73C44.893 54.63 54.408 50.69 64.528 50.69c10.117 0 19.63 3.94 26.78 11.095 7.155 7.158 11.095 16.668 11.095 26.785 0 10.12-3.94 19.63-11.098 26.783-7.146 7.153-16.66 11.092-26.777 11.092-10.12 0-19.634-3.938-26.786-11.092-7.154-7.16-11.095-16.667-11.095-26.783 0-10.117 3.94-19.628 11.098-26.785z"/><path fill="#EC7929" d="M80.197 92.926v.093c.47.853.733 1.823.746 2.86 0 3.27-2.655 5.923-5.925 5.923S69.1 99.15 69.1 95.88c0-1.44.515-2.766 1.378-3.795 0 0 14.464-20.137-5.785-33.498 0 0 5.875 15.86-8.13 22.527 0 0-3.865 2.73.4-6.335 0 0-11.89 6.682-11.89 22.813 0 7.29 3.777 13.69 9.475 17.376-.177-.66-.29-1.412-.29-2.3.007-6.47 5.805-14.03 7.587-14.02 0 0 .45 7.665 2.506 11.278 1.62 3.058.637 6.444-1.512 8.138.962.14 1.944.234 2.947.234 5.468 0 10.446-2.122 14.147-5.59l-.006-.024c6.907-9.08 2.902-16.462.27-19.76z"/></svg>