<svg xmlns="http://www.w3.org/2000/svg" width="138" height="138"><g><path d="M6196.66-1043.617l-94.29-195.494-211.913-48.306-169.962 135.26-.024 216.97 169.93 135.298 211.926-48.257 94.333-195.472z" fill="none" stroke="#fff" stroke-width="118.526" stroke-linejoin="round" transform="matrix(0 -.232 .228 0 307.563 1453.199)"/></g><path d="M69.164 13.544L24.508 35.45 13.474 84.685l30.898 39.486h49.562l30.906-39.48-11.023-49.235L69.164 13.54z" fill="#336ee5"/><g><path d="M6196.66-1043.617l-94.29-195.494-211.913-48.306-169.962 135.26-.024 216.97 169.93 135.298 211.926-48.257 94.333-195.472z" fill="none" stroke="#336ee5" stroke-width="74.748" stroke-linejoin="round" transform="matrix(0 -.232 .228 0 307.563 1453.199)"/></g><g><path d="M1013.075 6022.396c73.524 16.696 146.828-29.413 163.726-102.987 16.902-73.57-29.002-146.748-102.527-163.443-73.527-16.692-146.83 29.418-163.73 102.988-16.9 73.574 29.003 146.75 102.532 163.44z" fill="none" stroke="#fff" stroke-width="30.781" stroke-linejoin="round" transform="matrix(-.228 0 0 -.235 307.563 1453.199)"/></g><path d="M72.04 34.45l-3.433.014-.22 25.93 5.084.048-1.43-25.986z" fill="#fff"/><g><path d="M1096.802 6045.61l15.99-.035 1.02-110.49-23.67-.21 6.66 110.734z" fill="none" stroke="#fff" stroke-width=".412" transform="matrix(-.215 0 0 -.235 307.563 1453.199)"/></g><path d="M66.275 34.45l3.435.014.212 25.93-5.08.047 1.433-25.984z" fill="#fff"/><g><path d="M1123.652 6045.61l-15.995-.034-.99-110.49 23.667-.204-6.682 110.728z" fill="none" stroke="#fff" stroke-width=".412" transform="matrix(-.215 0 0 -.235 307.563 1453.199)"/></g><path d="M66.486 24.66c0 1.685 1.196 3.05 2.672 3.05 1.476 0 2.673-1.365 2.673-3.05 0-1.684-1.195-3.05-2.672-3.05-1.476 0-2.672 1.365-2.672 3.05" fill="#fff"/><g><path d="M1173.505 6087.183c0-7.18-5.824-13-13.002-13-7.178.002-12.998 5.824-12.998 12.998 0 7.18 5.82 13 13.002 13.004 7.18 0 13-5.82 12.998-13z" fill="none" stroke="#fff" stroke-width=".274" transform="matrix(-.206 0 0 -.235 307.563 1453.199)"/></g><path d="M71.83 24.62c0 .24.01.588.002.82-.036.972-.243 1.717-.367 2.613-.225 1.916-.413 3.504-.298 4.98.107.74.523 1.03.87 1.373l-4.215 2.865.634-12.63 3.373-.02z" fill="#fff"/><g><path d="M-6476.058 1031.967c1.093 0 2.668-.048 3.72-.012 4.404.156 7.783 1.063 11.843 1.606 8.684.984 15.887 1.813 22.577 1.305 3.35-.465 4.672-2.29 6.223-3.81l12.988 18.455-57.255-2.774-.096-14.768z" fill="none" stroke="#fff" stroke-width=".268" transform="matrix(0 .221 -.228 0 307.563 1453.199)"/></g><path d="M66.486 24.62c0 .24-.01.588-.002.82.035.972.242 1.717.366 2.613.225 1.916.414 3.504.298 4.98-.106.74-.523 1.03-.87 1.373l4.216 2.865-.634-12.63-3.374-.02z" fill="#fff"/><g><path d="M-6476.058 1055.36c1.093 0 2.668.048 3.72.013 4.404-.155 7.783-1.062 11.843-1.605 8.684-.985 15.887-1.814 22.577-1.306 3.35.467 4.672 2.29 6.223 3.81l12.988-18.454-57.255 2.774-.096 14.77z" fill="none" stroke="#fff" stroke-width=".268" transform="matrix(0 .221 -.228 0 307.563 1453.199)"/></g><g><path d="M1073.727 5865.264l-30.106-14.43-30.1 14.437-7.433 32.442 20.84 26.01h33.41l20.83-26.016-7.44-32.437z" fill="none" stroke="#fff" stroke-width="30.346" transform="matrix(-.228 0 0 -.235 307.563 1453.199)"/></g><path d="M98.92 50.58l-2.147-2.752-19.87 15.992 3.132 4.112 18.885-17.35z" fill="#fff"/><g><path d="M5577.03 3012.37l15.99-.035 1.015-110.493-23.666-.208 6.66 110.736z" fill="none" stroke="#fff" stroke-width=".412" transform="matrix(-.134 -.172 .179 -.146 307.563 1453.199)"/></g><path d="M95.325 45.95l2.135 2.764-19.6 16.338L74.654 61l20.67-15.05z" fill="#fff"/><g><path d="M5603.88 3012.372l-15.99-.037-.996-110.493 23.668-.2-6.68 110.73z" fill="none" stroke="#fff" stroke-width=".412" transform="matrix(-.134 -.172 .179 -.146 307.563 1453.199)"/></g><path d="M102.907 40.015c-1.282 1.05-1.575 2.863-.656 4.05.922 1.184 2.708 1.294 3.99.244 1.282-1.052 1.576-2.864.655-4.05-.92-1.185-2.706-1.295-3.988-.245" fill="#fff"/><g><path d="M5852.363 3053.4c0-7.182-5.82-13-13.002-13.002-7.18 0-13 5.823-13 13.003s5.822 13 13.002 12.996c7.18 0 12.998-5.82 13-12.997z" fill="none" stroke="#fff" stroke-width=".274" transform="matrix(-.128 -.165 .179 -.146 307.563 1453.199)"/></g><path d="M106.27 44.282c-.184.15-.44.376-.623.514-.762.578-1.458.876-2.217 1.334-1.598 1.014-2.925 1.853-3.976 2.867-.496.545-.458 1.06-.5 1.553l-4.81-1.598 10.006-7.366 2.12 2.696z" fill="#fff"/><g><path d="M-3249.23 5243.322c1.092 0 2.663-.052 3.72-.013 4.404.153 7.78 1.06 11.842 1.606 8.682.983 15.886 1.81 22.578 1.302 3.348-.463 4.666-2.286 6.217-3.808l12.99 18.452-57.253-2.775-.095-14.764z" fill="none" stroke="#fff" stroke-width=".268" transform="matrix(-.168 .138 -.142 -.183 307.563 1453.199)"/></g><path d="M102.938 39.99c-.183.15-.455.357-.626.51-.717.634-1.156 1.265-1.76 1.923-1.317 1.375-2.41 2.517-3.605 3.344-.628.376-1.11.223-1.586.157l.45 5.172 9.216-8.382-2.088-2.724z" fill="#fff"/><g><path d="M-3249.234 5266.713c1.098 0 2.668.05 3.72.012 4.407-.155 7.785-1.06 11.845-1.605 8.687-.984 15.887-1.81 22.58-1.302 3.348.463 4.667 2.287 6.218 3.807l12.986-18.45-57.25 2.767-.098 14.77z" fill="none" stroke="#fff" stroke-width=".268" transform="matrix(-.168 .138 -.142 -.183 307.563 1453.199)"/></g><path d="M103.35 82.246l.756-3.44-24.56-5.99-1.175 5.08 24.98 4.35z" fill="#fff"/><g><path d="M-5847.358 2171.575l-15.994.032-1.017 110.49 23.67.208-6.658-110.73z" fill="none" stroke="#fff" stroke-width=".412" transform="matrix(-.048 .215 -.223 -.052 307.563 1453.199)"/></g><path d="M104.633 76.472l-.773 3.437-24.654-5.557 1.085-5.1 24.343 7.22z" fill="#fff"/><g><path d="M-5874.207 2171.568l15.993.04.99 110.492-23.667.203 6.683-110.735z" fill="none" stroke="#fff" stroke-width=".412" transform="matrix(-.048 .215 -.223 -.052 307.563 1453.199)"/></g><path d="M113.877 78.862c-1.6-.376-3.162.52-3.49 1.997-.33 1.477.7 2.98 2.3 3.354 1.598.376 3.16-.52 3.49-1.997.328-1.478-.702-2.98-2.3-3.355" fill="#fff"/><g><path d="M-6133.947 2130.576c0 7.18 5.818 13 13 12.998 7.177 0 12.996-5.818 12.994-13 .01-7.177-5.816-12.995-12.998-12.998-7.178 0-12.998 5.82-12.997 13z" fill="none" stroke="#fff" stroke-width=".274" transform="matrix(-.046 .206 -.223 -.052 307.563 1453.199)"/></g><path d="M112.725 84.223c-.228-.054-.56-.12-.78-.18-.913-.252-1.575-.625-2.396-.95-1.77-.65-3.235-1.193-4.662-1.405-.724-.06-1.093.293-1.495.566l-1.782-4.86 11.846 3.444-.73 3.385z" fill="#fff"/><g><path d="M2265.628 5497.436c1.093 0 2.665-.046 3.72-.012 4.406.157 7.784 1.06 11.842 1.605 8.687.985 15.886 1.812 22.578 1.3 3.35-.46 4.668-2.282 6.22-3.805l12.988 18.452-57.252-2.77-.095-14.772z" fill="none" stroke="#fff" stroke-width=".268" transform="matrix(-.209 -.049 .051 -.229 307.563 1453.199)"/></g><path d="M113.915 78.87c-.23-.053-.556-.14-.778-.185-.93-.18-1.684-.14-2.56-.214-1.87-.2-3.42-.364-4.794-.81-.678-.27-.86-.752-1.108-1.176l-3.657 3.584 12.126 2.177.77-3.374z" fill="#fff"/><g><path d="M2265.627 5520.827c1.095 0 2.667.048 3.72.015 4.41-.155 7.785-1.064 11.844-1.607 8.687-.982 15.886-1.81 22.577-1.3 3.352.462 4.67 2.286 6.22 3.808l12.99-18.454-57.254 2.768-.097 14.77z" fill="none" stroke="#fff" stroke-width=".268" transform="matrix(-.209 -.049 .051 -.229 307.563 1453.199)"/></g><path d="M82.06 105.578l3.09-1.538-10.753-23.46-4.6 2.222 12.263 22.776z" fill="#fff"/><g><path d="M-1704.313 5602.18l-15.996.035-1.015 110.49 23.67.208-6.658-110.733z" fill="none" stroke="#fff" stroke-width=".412" transform="matrix(-.193 .096 -.099 -.211 307.563 1453.199)"/></g><path d="M87.255 103.008l-3.098 1.523-11.142-23.266 4.56-2.308 9.68 24.052z" fill="#fff"/><g><path d="M-1731.166 5602.177l15.994.038.99 110.49-23.667.203 6.684-110.73z" fill="none" stroke="#fff" stroke-width=".412" transform="matrix(-.193 .096 -.099 -.211 307.563 1453.199)"/></g><path d="M91.2 111.923c-.712-1.518-2.366-2.215-3.697-1.558-1.33.658-1.83 2.422-1.12 3.94.712 1.518 2.367 2.216 3.696 1.557 1.33-.657 1.83-2.42 1.12-3.94" fill="#fff"/><g><path d="M-1806.238 5560.68c0 7.18 5.82 13 13.002 13.002 7.18 0 12.998-5.822 13-13 0-7.18-5.822-13-13-13-7.182 0-13.002 5.82-13.002 12.997z" fill="none" stroke="#fff" stroke-width=".274" transform="matrix(-.185 .092 -.099 -.211 307.563 1453.199)"/></g><path d="M86.402 114.34c-.102-.217-.26-.524-.35-.737-.378-.89-.506-1.655-.772-2.516-.606-1.827-1.107-3.343-1.835-4.62-.407-.62-.906-.696-1.363-.85l2.587-4.46 4.762 11.66-3.03 1.524z" fill="#fff"/><g><path d="M5915.21 1602.956c1.094 0 2.664-.05 3.72-.013 4.405.152 7.78 1.06 11.838 1.605 8.688.984 15.887 1.81 22.578 1.302 3.353-.465 4.672-2.287 6.222-3.808l12.99 18.452-57.25-2.772-.097-14.767z" fill="none" stroke="#fff" stroke-width=".268" transform="matrix(-.093 -.199 .206 -.102 307.563 1453.199)"/></g><path d="M91.216 111.96c-.102-.218-.238-.535-.343-.74-.443-.86-.944-1.44-1.434-2.192-1.013-1.626-1.854-2.973-2.373-4.354-.217-.713.036-1.16.205-1.624l-5.008-.702 5.904 11.096 3.048-1.485z" fill="#fff"/><g><path d="M5915.21 1626.345c1.093 0 2.664.05 3.72.015 4.406-.157 7.78-1.064 11.84-1.607 8.69-.984 15.886-1.81 22.578-1.305 3.35.463 4.668 2.287 6.22 3.813l12.987-18.456-57.252 2.773-.092 14.768z" fill="none" stroke="#fff" stroke-width=".268" transform="matrix(-.093 -.199 .206 -.102 307.563 1453.199)"/></g><path d="M51.046 102.964l3.097 1.523 11.15-23.265-4.56-2.31-9.687 24.052z" fill="#fff"/><g><path d="M3732.233 4696.53l-15.993.033-1.014 110.494 23.668.207-6.66-110.734z" fill="none" stroke="#fff" stroke-width=".412" transform="matrix(-.193 -.096 .099 -.211 307.563 1453.199)"/></g><path d="M56.24 105.534l-3.09-1.54L63.91 80.54l4.6 2.224-12.27 22.772z" fill="#fff"/><g><path d="M3705.383 4696.53l15.997.036.99 110.493-23.67.2 6.683-110.73z" fill="none" stroke="#fff" stroke-width=".412" transform="matrix(-.193 -.096 .099 -.211 307.563 1453.199)"/></g><path d="M51.915 114.26c.712-1.517.21-3.282-1.12-3.94-1.328-.657-2.983.04-3.696 1.558-.712 1.517-.21 3.28 1.12 3.94 1.33.658 2.983-.04 3.695-1.557" fill="#fff"/><g><path d="M3871.76 4654.357c0 7.18 5.825 13.003 13.002 13 7.178 0 13-5.818 13-13 0-7.18-5.82-12.998-13-12.998-7.182-.002-12.997 5.82-13 12.997z" fill="none" stroke="#fff" stroke-width=".274" transform="matrix(-.185 -.092 .099 -.211 307.563 1453.199)"/></g><path d="M47.084 111.915c.102-.218.238-.535.344-.742.443-.86.944-1.438 1.434-2.19 1.012-1.626 1.852-2.972 2.372-4.354.216-.714-.036-1.162-.205-1.624l5.007-.703-5.904 11.096-3.05-1.485z" fill="#fff"/><g><path d="M-4951.74 3507.378c-1.097 0-2.666.053-3.72.017-4.408-.157-7.785-1.064-11.845-1.606-8.686-.986-15.88-1.812-22.577-1.305-3.35.463-4.666 2.285-6.216 3.808l-12.992-18.45 57.254 2.768.097 14.768z" fill="none" stroke="#fff" stroke-width=".268" transform="matrix(-.093 .199 -.206 -.102 307.563 1453.199)"/></g><path d="M51.897 114.297c.103-.218.26-.526.35-.738.38-.893.507-1.657.773-2.52.607-1.826 1.107-3.34 1.836-4.62.407-.617.905-.694 1.363-.846l-2.59-4.46-4.763 11.66 3.03 1.523z" fill="#fff"/><g><path d="M-4951.738 3483.99c-1.096 0-2.67-.048-3.72-.015-4.41.158-7.787 1.064-11.844 1.607-8.688.986-15.884 1.81-22.578 1.304-3.352-.465-4.67-2.287-6.22-3.81l-12.99 18.454 57.253-2.77.1-14.77z" fill="none" stroke="#fff" stroke-width=".268" transform="matrix(-.093 .199 -.206 -.102 307.563 1453.199)"/></g><path d="M33.682 76.408l.772 3.438 24.656-5.55-1.085-5.102-24.343 7.214z" fill="#fff"/><g><path d="M6368.633 136.44l-15.99.036-1.02 110.495 23.67.207-6.66-110.736z" fill="none" stroke="#fff" stroke-width=".412" transform="matrix(-.048 -.215 .223 -.052 307.563 1453.199)"/></g><path d="M34.964 82.183l-.756-3.44 24.56-5.984 1.176 5.08-24.98 4.343z" fill="#fff"/><g><path d="M6341.786 136.44l15.99.037.993 110.49-23.67.204 6.686-110.73z" fill="none" stroke="#fff" stroke-width=".412" transform="matrix(-.048 -.215 .223 -.052 307.563 1453.199)"/></g><path d="M25.627 84.15c1.6-.375 2.63-1.876 2.3-3.355-.328-1.478-1.89-2.373-3.49-1.998-1.598.374-2.628 1.876-2.3 3.355.33 1.478 1.89 2.373 3.49 1.998" fill="#fff"/><g><path d="M6624.68 93.87c0 7.18 5.82 12.998 13 12.997 7.182 0 13.002-5.82 13-12.997 0-7.18-5.818-13.002-13-13-7.18 0-13 5.82-13 13z" fill="none" stroke="#fff" stroke-width=".274" transform="matrix(-.046 -.206 .223 -.052 307.563 1453.199)"/></g><path d="M24.4 78.807c.228-.053.555-.142.778-.185.93-.182 1.683-.14 2.56-.215 1.87-.2 3.42-.365 4.794-.81.677-.27.86-.752 1.108-1.177l3.656 3.586L25.17 82.18l-.77-3.373z" fill="#fff"/><g><path d="M-100.508 5985.596c-1.09 0-2.664.05-3.72.01-4.406-.15-7.782-1.06-11.84-1.602-8.687-.985-15.89-1.813-22.58-1.305-3.348.463-4.67 2.287-6.22 3.81l-12.986-18.456 57.25 2.773.096 14.77z" fill="none" stroke="#fff" stroke-width=".268" transform="matrix(-.209 .049 -.051 -.229 307.563 1453.199)"/></g><path d="M25.59 84.16c.228-.055.56-.12.78-.18.912-.252 1.574-.625 2.395-.95 1.77-.65 3.234-1.194 4.66-1.405.725-.06 1.095.293 1.496.565l1.782-4.86-11.843 3.445.73 3.384z" fill="#fff"/><g><path d="M-100.508 5962.205c-1.095 0-2.665-.052-3.722-.014-4.402.156-7.78 1.06-11.838 1.605-8.687.986-15.886 1.812-22.578 1.302-3.35-.46-4.672-2.284-6.22-3.805l-12.99 18.453 57.25-2.772.098-14.768z" fill="none" stroke="#fff" stroke-width=".268" transform="matrix(-.209 .049 -.051 -.229 307.563 1453.199)"/></g><path d="M43.01 45.898l-2.135 2.763 19.597 16.344 3.205-4.05L43.01 45.897z" fill="#fff"/><g><path d="M-4219.38 4644.596l15.994-.032 1.013-110.494-23.663-.206 6.657 110.732z" fill="none" stroke="#fff" stroke-width=".412" transform="matrix(-.134 .172 -.179 -.146 307.563 1453.199)"/></g><path d="M39.414 50.53l2.148-2.754 19.865 15.996-3.132 4.11-18.88-17.353z" fill="#fff"/><g><path d="M-4192.526 4644.602l-15.997-.04-.99-110.488 23.665-.205-6.678 110.732z" fill="none" stroke="#fff" stroke-width=".412" transform="matrix(-.134 .172 -.179 -.146 307.563 1453.199)"/></g><path d="M32.095 44.255c1.283 1.05 3.068.94 3.988-.244.92-1.184.627-2.998-.654-4.048-1.283-1.05-3.07-.942-3.99.243-.92 1.186-.627 3 .655 4.05" fill="#fff"/><g><path d="M-4379.206 4686.834c0-7.18-5.82-13-12.998-12.998-7.18 0-13.002 5.823-13.003 13 0 7.18 5.82 13 13 13s13.003-5.82 13-13.002z" fill="none" stroke="#fff" stroke-width=".274" transform="matrix(-.128 .165 -.179 -.146 307.563 1453.199)"/></g><path d="M35.397 39.938c.184.15.455.357.626.508.718.635 1.156 1.266 1.76 1.924 1.318 1.376 2.408 2.518 3.604 3.345.628.376 1.11.223 1.586.157l-.447 5.172-9.216-8.384 2.087-2.722z" fill="#fff"/><g><path d="M4985.595 3965.326c-1.093 0-2.667.05-3.718.016-4.405-.154-7.787-1.065-11.84-1.607-8.69-.985-15.89-1.812-22.58-1.303-3.35.46-4.667 2.284-6.22 3.807l-12.987-18.454 57.25 2.774.095 14.766z" fill="none" stroke="#fff" stroke-width=".268" transform="matrix(-.168 -.138 .142 -.183 307.563 1453.199)"/></g><path d="M32.065 44.23c.184.15.44.375.623.513.76.578 1.458.876 2.216 1.335 1.598 1.014 2.925 1.853 3.977 2.866.497.546.458 1.062.502 1.554l4.81-1.598-10.007-7.367-2.12 2.696z" fill="#fff"/><g><path d="M4985.597 3941.936c-1.093 0-2.665-.05-3.72-.014-4.405.154-7.784 1.066-11.843 1.605-8.684.985-15.887 1.812-22.58 1.303-3.347-.464-4.666-2.287-6.217-3.806l-12.99 18.45 57.25-2.77.1-14.767z" fill="none" stroke="#fff" stroke-width=".268" transform="matrix(-.168 -.138 .142 -.183 307.563 1453.199)"/></g><path d="M73.355 57.338c.053 1.29 1.085 2.317 2.353 2.317.52 0 .998-.17 1.387-.463l.612.3-1.25 2.657-5.484-2.718 1.245-2.657 1.137.563z" fill="#fff"/><path d="M82.303 65.917c-.948.846-1.087 2.318-.297 3.335.324.417.753.695 1.218.826l.153.678-2.802.65-1.35-6.096 2.798-.657.28 1.264z" fill="#fff"/><path d="M81.363 78.447c-1.235-.233-2.44.57-2.723 1.84-.116.52-.06 1.04.13 1.494l-.42.547-2.243-1.845 3.798-4.885 2.245 1.838-.787 1.012z" fill="#fff"/><path d="M71.24 85.5c-.592-1.137-1.957-1.604-3.098-1.04-.468.232-.827.6-1.055 1.037h-.677l.005-2.952h6.087v2.95h-1.26z" fill="#fff"/><path d="M59.572 81.727c.496-1.186 0-2.573-1.14-3.138-.47-.232-.973-.29-1.447-.2l-.423-.544 2.248-1.837 3.793 4.89-2.245 1.84-.786-1.013z" fill="#fff"/><path d="M55.117 70.007c1.21-.34 1.957-1.603 1.676-2.873-.116-.52-.385-.96-.75-1.286l.15-.68 2.8.662-1.36 6.096-2.798-.655.282-1.263z" fill="#fff"/><path d="M61.26 59.14c1.012.76 2.44.574 3.23-.444.323-.417.492-.91.512-1.404l.61-.304 1.24 2.662-5.485 2.71L60.12 59.7l1.14-.56z" fill="#fff"/></svg>